
<svg
   version="1.1"
   id="Layer_1"
   x="0px"
   y="0px"
   width="100%"
   viewBox="0 0 512 512"
   enable-background="new 0 0 512 512"
   
   
   
   
   
   xmlns="http://www.w3.org/2000/svg"
   ><defs
   id="defs17"><mask
     maskUnits="userSpaceOnUse"
     id="mask17"><path
       id="path17"
       d="m 460.46743,453.98575 c -33.25806,0.0298 -66.51656,0.0703 -99.77344,0.37695 -1.08284,7.91729 -1.6459,15.90278 -1.66057,23.89402 -0.18699,1.88826 1.51915,3.21044 3.02575,3.9732 1.84915,0.9975 4.0267,0.80864 6.05669,0.88189 1.05163,0.002 2.10287,-0.0335 3.1543,-0.0499 0.0572,5.59557 -0.0104,11.19555 0.18278,16.78788 0.24339,3.7083 1.86644,7.5585 5.12972,9.56954 2.45207,1.49622 5.53765,2.02161 8.33008,1.31445 3.81223,-1.07534 6.35111,-4.71823 7.13867,-8.45703 0.37569,-1.55687 0.3564,-3.16737 0.32812,-4.7539 2.07634,-4.77593 4.89158,-9.5574 9.42986,-12.36141 3.37389,-2.12942 7.50501,-2.63071 11.4081,-2.20063 5.27243,0.43705 10.75004,1.96871 14.62132,5.76151 2.99581,2.91639 4.84446,6.86913 5.71885,10.91433 0.31379,6.69318 0.74491,13.38269 0.93125,20.08073 0.0515,1.96625 -0.12645,3.94518 0.0252,5.9029 0.40179,2.96447 2.16283,5.99231 5.13244,6.96447 2.409,0.86099 5.06451,-0.0365 6.96739,-1.60683 2.03026,-1.64623 3.95227,-3.86634 4.18609,-6.5744 0.75309,-11.19993 0.36382,-22.43198 0.46403,-33.64747 0.007,-2.56797 0.002,-5.13594 2.7e-4,-7.70391 2.69245,-0.0713 5.41996,0.20104 8.08203,-0.30273 2.39041,-0.42672 4.57223,-2.08023 5.34978,-4.42155 0.9741,-2.69065 0.59225,-5.60305 0.78357,-8.40367 0.0956,-3.57184 0.15093,-7.30326 -1.38033,-10.62062 -0.75989,-1.77547 -1.58974,-3.52021 -2.29403,-5.31979 -0.44597,6.5e-4 -0.89193,10e-4 -1.33789,0.002 z"
       style="fill:#ffffff" /></mask><filter
     
     
     
     
     style="color-interpolation-filters:sRGB;"
     id="filter27"><feColorMatrix
       type="saturate"
       values="1"
       id="feColorMatrix27" /></filter></defs>

















<path
   fill="#000000"
   opacity="1"
   stroke="none"
   d="m 168.27911,459.51349 c -16.46872,-0.96203 -31.22353,-6.43722 -44.74157,-15.95898 -13.52859,-9.52918 -22.59752,-22.24964 -28.863997,-37.26358 -2.03291,-4.87073 -3.99443,-9.7713 -5.60115,-15.0763 1.05239,-0.44882 1.71732,-0.50647 2.38226,-0.5065 98.108867,-0.004 196.217737,-0.006 294.326597,0.0107 1.4863,2.4e-4 2.9725,0.23169 4.45877,0.35519 -6.00662,16.24881 -12.33377,32.44446 -25.46167,44.46094 -7.65259,7.00467 -15.82468,13.66586 -26.01251,16.93972 -7.71888,2.48047 -15.48081,4.83307 -23.27127,7.07685 -0.92081,0.26523 -2.14356,-0.51791 -4.07691,-0.88565 -46.87871,-0.0481 -92.9069,-0.033 -138.93503,0.0327 -1.40156,0.002 -2.80236,0.53137 -4.20352,0.81491 z"
   id="path2"
   mask="none"
   transform="matrix(1.2666998,0,0,1.3188864,-77.061899,-145.67343)"
   style="filter:url(#filter27)" /><path
   fill="#000000"
   opacity="1"
   stroke="none"
   d="m 347.17226,547.62802 c -16.46872,-0.96203 -31.22353,-6.43722 -44.74157,-15.95898 -13.52859,-9.52918 -22.59752,-22.24964 -28.864,-37.26358 -2.03291,-4.87073 -3.99443,-9.7713 -5.60115,-15.0763 1.05239,-0.44882 1.71732,-0.50647 2.38226,-0.5065 98.10887,-0.004 196.21774,-0.006 294.3266,0.0107 1.4863,2.4e-4 2.9725,0.23169 4.45877,0.35519 -6.00662,16.24881 -12.33377,32.44446 -25.46167,44.46094 -7.65259,7.00467 -15.82468,13.66586 -26.01251,16.93972 -7.71888,2.48047 -15.48081,4.83307 -23.27127,7.07685 -0.92081,0.26523 -2.14356,-0.51791 -4.07691,-0.88565 -46.87871,-0.0481 -92.9069,-0.033 -138.93503,0.0327 -1.40156,0.002 -2.80236,0.53137 -4.20352,0.81491 z"
   id="path18"
   mask="url(#mask17)"
   transform="matrix(1.2666998,0,0,1.3188864,-297.63733,-261.67662)"
   style="fill:#ffffff;filter:url(#filter27)" /><path
   fill="#010101"
   opacity="1"
   stroke="none"
   d="m 261.62724,410.57775 c -2.9703,-12.24275 -11.0492,-17.6595 -23.88517,-18.28526 -11.85482,-0.57792 -17.6465,7.85783 -21.13294,15.93734 -0.2465,0.57131 -0.13664,1.31499 -0.12297,1.97707 0.11695,5.66118 -3.29045,10.24118 -7.66551,10.28071 -5.67932,0.0513 -9.21774,-3.84527 -9.33669,-10.4398 -0.10496,-5.81952 -0.0868,-11.64122 -0.13351,-17.46188 -0.001,-0.15348 -0.12294,-0.30597 -0.0374,-0.10634 -3.06423,0 -6.00165,0.2345 -8.86965,-0.10965 -1.23349,-0.148 -3.32399,-1.49901 -3.32171,-2.2986 0.021,-7.33585 0.4163,-14.67064 1.43257,-22.27951 33.15532,-0.3038 65.58059,-0.33382 98.00586,-0.36383 0.9718,2.48398 2.42987,4.89879 2.79559,7.46901 0.48584,3.41447 0.13882,6.95029 0.11529,10.43374 -0.0346,5.13105 -1.96499,7.09914 -7.00238,7.15642 -2.13491,0.0243 -4.27035,0.004 -7.11554,0.004 0,4.69245 0.0194,9.09822 -0.004,13.50377 -0.0528,9.94743 0.23654,19.9203 -0.46015,29.82329 -0.164,2.33105 -3.32516,5.57733 -5.75073,6.3302 -2.85327,0.88565 -5.99918,-1.01727 -6.59906,-5.68131 0.0143,-2.98416 0.092,-5.13586 -3.7e-4,-7.28024 -0.26721,-6.20465 -0.60281,-12.40633 -0.91156,-18.60916 z"
   id="path5-4"
   transform="matrix(1.2666998,0,0,1.3188864,-77.061899,-145.67343)"
   style="filter:url(#filter27)" /><path
   fill="#010101"
   opacity="1"
   stroke="none"
   d="m 386.18739,383.05661 c -2.89465,-0.0459 -5.78927,-0.0917 -8.86294,-0.95407 -0.21473,-36.50977 -0.25043,-72.20307 -0.28617,-107.89636 -0.49276,-16.01834 12.13517,-28.48352 25.97916,-31.11751 15.39191,-2.92851 29.59699,4.85457 36.29095,19.02302 1.8938,4.00843 2.67338,8.87839 2.7229,13.36689 0.25693,23.29361 0.11463,46.59164 0.0904,69.88812 -4.9e-4,0.45895 -0.2569,0.91763 -0.51581,1.78473 -2.75964,0 -5.54666,0 -8.82248,-0.5065 -0.51199,-22.97013 -0.51468,-45.43381 -0.59485,-67.89722 -0.007,-1.93252 -0.52725,-3.86319 -0.80911,-5.79474 -1.73096,-14.53427 -19.6738,-25.37829 -34.39578,-15.5455 -5.4253,3.62351 -7.04209,9.05176 -9.72409,14.95542 -0.0161,35.56692 -0.0276,70.30014 -0.1128,105.03323 -0.005,1.8876 -0.62539,3.77368 -0.95935,5.66049 z"
   id="path6"
   transform="matrix(1.2666998,0,0,1.3188864,-77.061899,-145.67343)"
   style="filter:url(#filter27)" /><g
   id="g30"
   transform="matrix(0.64099799,0,0,0.64638649,119.83972,22.556874)"
   style="filter:url(#filter27)"><path
     fill="#FF5682"
     opacity="1"
     stroke="none"
     d="m 230.97453,458.84351 c -12.54535,3.6745 -25.0105,7.66427 -37.67129,10.88504 -5.96718,1.518 -12.29399,1.9241 -18.48583,2.19516 -13.23243,0.57931 -26.49197,1.21099 -39.7241,0.96038 C 117.54339,472.5517 100.62304,468.43167 86.436928,457.88355 67.855247,444.06702 51.67638,427.88251 46.50563,403.96094 c -1.30487,-6.03675 -2.094867,-12.25019 -2.419624,-18.41935 -0.626308,-11.89761 -1.668667,-23.88622 -0.833931,-35.71682 0.876225,-12.41876 4.064331,-27.52353 6.474846,-40.18701 12.044331,9.03479 23.280632,21.32843 35.039246,30.52899 5.04087,3.94424 12.085269,0.73879 17.275743,4.79278 -0.87593,8.14859 -4.110712,22.51111 -3.852892,30.21299 0.645127,19.27142 13.725252,44.53552 41.908932,48.86917 15.17465,2.33328 29.76802,0.99881 43.98768,-4.71985 0.36499,0.72995 0.56592,1.22974 0.93205,1.52408 14.27599,11.47705 28.58028,22.919 42.83245,34.4255 1.21246,0.97889 2.09083,2.37159 3.1244,3.57209 z"
     id="path2-5"
     style="fill:#000000"
      /><path
     fill="#FF877D"
     opacity="1"
     stroke="none"
     d="m 352.71008,293.33427 c -6.05099,4.48748 -14.65039,10.92202 -20.85562,15.18505 -4.88074,3.35309 -13.20557,7.77394 -18.81806,10.74202 -5.66363,-4.05957 -9.14979,-6.99968 -14.36879,-10.80626 -4.22122,-3.07883 -7.54637,-6.53001 -11.83253,-9.80531 1.31201,-5.15353 3.18738,-11.91125 4.15799,-16.76214 0.26618,-1.33032 -0.45108,-3.74261 -1.42343,-4.22015 -1.33148,-0.65396 -3.651,-0.4743 -4.99133,0.30447 -3.12933,1.81824 -7.92605,5.53985 -11.20214,7.52886 -16.9686,-13.61142 -32.91099,-25.51896 -49.55548,-38.93692 -19.8704,-16.01852 -42.03158,-32.83933 -61.86114,-48.90817 -7.96319,-6.45295 -14.15801,-13.83586 -22.00483,-20.43245 10.12234,-7.55962 23.13211,-16.674 33.66756,-23.92763 5.79958,5.09333 11.49494,8.71384 17.07299,13.26649 2.8548,2.33003 5.18414,3.27687 8.3596,5.21404 -0.27714,4.23167 -1.36787,10.75117 -0.8999,14.89877 0.55221,4.8942 1.60801,9.95091 3.61148,14.41371 3.52861,7.86003 12.76585,9.28293 19.17978,3.45343 2.2048,-2.0039 5.33185,-5.54765 8.09788,-7.72705 2.10817,0.72212 2.59331,2.6494 3.86255,3.65572 8.571,6.79561 19.29703,11.00924 27.81764,17.86832 20.00949,16.10763 39.14877,28.86101 59.12624,45.00827 10.55533,8.53158 22.35347,21.3944 32.85954,29.98693 z"
     id="path3"
     style="fill:#000000"
      /><path
     fill="#FF917C"
     opacity="1"
     stroke="none"
     d="m 350.36261,294.96912 c -10.82391,-8.4505 -21.2894,-17.09324 -31.84473,-25.62482 -19.97747,-16.14726 -40.00519,-32.23228 -60.01468,-48.33991 -8.52061,-6.85908 -17.02554,-13.73803 -25.59654,-20.53364 -1.26924,-1.00632 -2.86493,-1.60094 -4.66579,-2.4491 4.43233,-11.29042 9.22085,-22.51776 14.62667,-33.74101 4.48631,3.379 8.25125,6.88264 12.24144,10.10762 23.69095,19.14775 47.39978,38.27385 71.18753,57.30106 4.99728,3.99719 10.34909,7.55113 15.53753,11.30932 3.84015,6.51685 7.74271,7.78253 15.11393,4.4884 3.225,-1.44119 6.1549,-3.52842 9.30407,-5.15739 3.91443,-2.02483 7.95945,-2.40332 11.3418,0.87314 3.38498,3.27905 3.18073,7.33713 1.19873,11.29474 -6.77182,13.52209 -14.66028,26.32177 -24.83886,37.59323 -0.94379,1.04513 -2.17533,1.83038 -3.5911,2.87836 z"
     id="path4"
     style="fill:#000000" /><path
     fill="#FF7E7E"
     opacity="1"
     stroke="none"
     d="m 141.63971,176.02676 c 8.16081,6.46044 15.9104,13.17702 23.8736,19.62998 19.82955,16.06883 39.76963,32.0012 59.64004,48.01973 16.64449,13.41795 33.25321,26.88026 50.00748,40.77202 -8.95142,9.52887 -19.58733,20.38552 -28.73595,29.11812 -4.92728,-6.43893 -10.17471,-11.93533 -17.81766,-14.39899 1.6088,-2.33093 4.58449,-5.80001 5.81459,-7.95052 3.07697,-5.37936 2.25139,-12.05191 -1.79466,-16.16046 -3.98881,-4.05041 -9.33569,-4.7677 -15.14837,-1.92551 -2.527,1.2356 -4.96848,2.64609 -7.51208,3.63169 -2.8383,-3.12619 -5.39019,-6.18189 -8.42411,-8.64353 -21.62253,-17.54419 -43.38338,-34.91792 -65.00931,-52.45797 -6.67169,-5.4112 -13.06093,-11.17061 -19.5795,-16.77059 8.12398,-7.57594 16.24796,-15.15188 24.68593,-22.86397 z"
     id="path5"
     style="fill:#000000"
      /><path
     fill="#FF747F"
     opacity="1"
     stroke="none"
     d="m 229.78616,297.92194 c 7.79667,2.15457 13.26621,7.42886 18.09426,14.22854 -4.06272,10.03638 -0.64383,18.36609 8.26686,19.17697 3.51633,0.31998 7.28387,-2.12109 11.27362,-3.24084 8.78821,6.69498 17.23981,13.32583 25.6914,19.95669 -1.01699,4.04581 -3.37698,8.29978 -2.78839,12.09668 1.50623,9.71598 5.53147,11.89099 15.04517,7.95349 3.11298,-1.28839 6.04886,-3.08807 8.89505,-4.91918 4.95261,-3.18622 9.345,-3.0116 13.78253,0.84079 3.33328,2.89373 4.19156,7.32678 1.41965,11.92895 -6.06796,10.07468 -13.39583,21.25826 -20.17036,31.05946 -2.72632,-2.10198 -7.12149,-1.70083 -9.43658,-3.56808 -23.71201,-19.12534 -45.41563,-38.92902 -69.20106,-57.96284 -5.39619,-4.31821 -10.21363,-9.36 -15.81365,-13.87589 1.90059,-12.23652 5.79403,-25.24722 14.9415,-33.67474 z"
     id="path6-1"
     style="fill:#000000"
      /><path
     fill="#FFA27A"
     opacity="1"
     stroke="none"
     d="m 275.77809,135.39936 c 7.36945,-2.96872 15.88042,-6.30775 23.20839,-9.37556 5.15125,-2.15654 12.20297,-5.65911 17.80099,-7.78987 1.74698,1.49044 3.52174,2.99387 4.92573,4.13301 14.67123,11.90342 28.09492,24.59055 42.74531,36.51946 6.40418,5.21455 12.61841,9.10758 18.91892,14.44947 -4.50278,6.61632 -10.34777,15.00301 -14.83657,21.62881 -1.98117,2.9244 -5.46932,7.43599 -7.95656,10.2793 -5.03381,-3.77164 -9.3012,-6.57101 -13.81701,-10.22634 -23.73343,-19.21095 -47.25143,-40.41269 -70.9892,-59.61828 z"
     id="path7"
     style="fill:#000000"
      /><path
     fill="#FF767F"
     opacity="1"
     stroke="none"
     d="m 117.08788,198.35766 c 6.82869,5.46672 14.32848,10.5598 21.00017,15.971 21.62593,17.54005 42.49834,34.91379 64.12087,52.45798 3.03392,2.46164 6.25214,5.96155 8.86535,9.35422 -10.85268,6.82889 -25.46634,11.90736 -38.08325,10.45045 -0.87601,-1.83078 -2.31829,-3.46075 -3.55667,-4.48617 -13.25999,-10.98004 -29.01158,-18.79431 -42.42802,-29.58258 -11.73629,-9.43724 -18.9632,-21.34716 -30.785986,-30.67688 6.482296,-7.26666 14.075136,-16.08809 20.867536,-23.48802 z"
     id="path8"
     style="fill:#000000"
      /><path
     fill="#FFAD79"
     opacity="1"
     stroke="none"
     d="m 382.36392,174.97075 c -6.61966,-5.19989 -12.83389,-10.64769 -19.23807,-15.86225 -14.65039,-11.9289 -29.40673,-23.72759 -44.07797,-35.63101 -1.40399,-1.13914 -2.51242,-2.64258 -3.9277,-4.27176 8.7576,-6.69022 17.72687,-13.02797 26.59247,-19.507564 3.87014,-2.828583 7.72723,-2.407395 11.33462,-0.03076 3.87097,2.550294 4.71189,6.550534 3.67902,10.908594 -0.59223,2.49894 -1.69532,4.89756 -2.08164,7.41601 -0.20096,1.31024 0.26596,3.18494 1.16083,4.04901 0.66586,0.64293 2.87067,0.58617 3.75818,-0.046 4.34839,-3.09736 8.48511,-6.49189 13.36478,-9.84596 7.00729,4.61037 13.34179,9.29155 19.68692,13.95834 5.39981,3.97153 10.81186,7.92647 16.2185,11.88873 -8.71695,12.27755 -17.43387,24.55509 -26.46994,36.97463 z"
     id="path9"
     style="fill:#000000" /><path
     fill="#FF6D80"
     opacity="1"
     stroke="none"
     d="m 215.10348,330.00418 c 5.56331,4.10941 11.26918,8.04065 16.66538,12.35886 23.78543,19.03381 47.48804,38.17117 71.20004,57.29651 2.3151,1.86724 4.48917,3.9093 6.90238,6.16427 -6.94724,6.86426 -14.06815,13.43445 -21.65467,19.83145 -1.5162,-1.415 -2.40127,-2.8605 -3.64178,-3.86859 -21.71716,-17.64755 -43.44533,-35.28204 -65.27841,-52.78555 -2.22315,-1.78229 -5.13335,-2.70761 -7.72875,-4.49161 1.17592,-11.80911 2.35587,-23.15722 3.53581,-34.50534 z"
     id="path10"
     style="fill:#000000" /><path
     fill="#FF977B"
     opacity="1"
     stroke="none"
     d="m 340.79613,243.26804 c -5.26108,-3.36126 -13.05609,-5.36044 -18.05337,-9.35763 -23.78775,-19.0272 -47.27448,-38.59752 -70.96543,-57.74527 -3.99018,-3.22498 -5.53403,-6.95074 -9.69983,-10.49203 2.6516,-7.62655 8.73447,-15.02145 15.55751,-19.36244 1.28949,1.82027 4.78034,4.15053 6.06476,5.21428 8.79328,7.28252 17.95142,13.05997 26.84156,20.22548 20.87069,16.82192 39.96455,33.19955 60.83527,50.02144 -2.6882,6.36676 -7.81964,14.7325 -10.58047,21.49617 z"
     id="path11"
     style="fill:#000000"
      /><path
     fill="#FF707F"
     opacity="1"
     stroke="none"
     d="m 96.573746,221.09067 c 12.135714,9.19629 24.026924,18.4409 35.763214,27.87814 13.41644,10.78827 26.72482,21.71207 39.98482,32.69211 1.23837,1.02542 1.79222,2.8775 2.20938,4.77798 -11.82125,0.14383 -24.72269,3.18766 -34.91084,9.16672 -10.1069,-8.11068 -20.67201,-14.44092 -30.38729,-22.40683 -10.727814,-8.79618 -19.521995,-19.53672 -30.222167,-28.3666 5.435867,-7.55525 11.814065,-16.05285 17.562883,-23.74152 z"
     id="path12"
     style="fill:#000000"
      /><path
     fill="#FF9B7B"
     opacity="1"
     stroke="none"
     d="m 350.36255,222.94281 c -21.18933,-16.66017 -42.06006,-33.48203 -62.93076,-50.30394 -8.89013,-7.16551 -17.82617,-14.27562 -26.61944,-21.55814 -1.28443,-1.06375 -3.66473,-2.06135 -4.60644,-3.93826 6.03375,-4.00104 13.86764,-8.51913 20.30367,-12.16807 24.11682,19.18634 47.85694,38.38908 71.59036,57.60003 4.51581,3.65534 9.00531,7.34314 13.72397,11.2735 -3.56961,6.48274 -7.35617,12.70796 -11.46136,19.09488 z"
     id="path13"
     style="fill:#000000"
      /><path
     fill="#FF6880"
     opacity="1"
     stroke="none"
     d="m 79.636032,244.04968 c 11.017334,8.67006 21.696178,17.52594 32.423988,26.32212 9.71528,7.96591 19.48396,15.86669 29.26237,24.1672 -1.79929,1.66132 -3.87235,2.71405 -5.42281,4.2832 -6.66751,6.74772 -13.80971,14.9036 -20.54706,21.43552 -2.48611,-2.69064 -3.96465,-6.58771 -6.53003,-8.66077 -15.231136,-12.30832 -32.139029,-23.22878 -47.440668,-35.44988 5.455501,-10.22702 12.481543,-21.71052 18.25421,-32.09739 z"
     id="path14"
     style="fill:#000000"
      /><path
     id="path15"
     style="fill:#000000"
     
     
     
     d="m 62.46875,274.49219 a 0.59020562,0.59020562 0 0 0 -0.392578,0.35937 c -4.705614,12.43258 -9.088105,24.69803 -13.142578,37.03516 a 0.59020562,0.59020562 0 0 0 0.195312,0.64648 c 11.956492,9.42514 23.507834,18.89163 35.273438,28.09766 5.074876,3.97085 10.559284,7.3688 15.820316,11 a 0.59020562,0.59020562 0 0 0 0.86523,-0.22461 c 5.1288,-10.39873 10.26053,-20.80412 15.32813,-31.8418 a 0.59020562,0.59020562 0 0 0 -0.0742,-0.61328 c -2.38494,-3.00882 -4.51544,-5.6848 -7.14844,-7.8125 C 93.959585,298.82823 78.620534,286.64908 62.990234,274.59375 a 0.59020562,0.59020562 0 0 0 -0.521484,-0.10156 z" /><path
     fill="#FF6680"
     opacity="1"
     stroke="none"
     d="m 212.19992,361.82942 c 2.59137,1.32299 8.64268,2.56243 10.86582,4.34472 21.83309,17.50351 40.42015,34.19566 62.13731,51.84322 1.24051,1.00808 3.69613,4.65235 4.89447,6.20808 -7.27671,5.2781 -16.89998,11.81292 -24.90694,16.57192 -13.01962,-10.13434 -28.23739,-16.35289 -40.73867,-26.20055 -7.26439,-5.72238 -11.87913,-14.98893 -19.2031,-20.95417 2.13295,-9.80185 4.85614,-22.3781 6.95111,-31.81322 z"
     id="path16"
     style="fill:#000000"
      /><path
     fill="#FF5F81"
     opacity="1"
     stroke="none"
     d="m 205.83908,390.24001 c 7.36192,5.59854 14.17543,14.86509 21.43982,20.58747 12.50128,9.84766 27.71905,18.26499 40.37594,28.45237 -8.11358,4.87384 -19.2478,11.10803 -27.62235,15.64749 -2.68798,1.45703 -7.43847,2.58606 -10.58277,3.89065 -1.39342,-1.17498 -4.15645,-0.0548 -5.36892,-1.03368 -14.25216,-11.5065 -26.67179,-25.14723 -40.94778,-36.62428 -0.36613,-0.29434 1.3176,-1.10824 1.18274,-2.08453 10.52857,-5.79861 17.18716,-18.48402 21.52332,-28.83549 z"
     id="path17-7"
     style="fill:#000000"
      /><path
     fill="#FFB878"
     opacity="1"
     stroke="none"
     d="m 407.42387,139.67797 c -5.55142,-3.64512 -11.40769,-8.04428 -16.8075,-12.01581 -6.34512,-4.66679 -12.23541,-9.34797 -18.93078,-14.08603 10.77005,-9.31222 23.45107,-20.11607 35.21071,-29.344318 9.13821,6.640792 17.64313,13.260749 26.14804,19.880698 -6.99576,9.81403 -13.98617,19.6319 -20.99374,29.43746 -0.93094,1.30264 -3.50408,4.54179 -4.62673,6.128 z"
     id="path18-1"
     style="fill:#000000"
      /><path
     fill="#FF7E7E"
     opacity="1"
     stroke="none"
     d="m 292.10094,350.31427 c -8.77289,-6.45862 -17.66871,-13.97792 -26.3227,-20.97563 8.11169,-9.39773 16.45394,-21.12624 21.44667,-32.32781 4.34055,2.91526 8.77625,5.70011 12.99747,8.77893 5.219,3.80658 10.25992,7.85724 15.60117,12.06052 -8.50922,7.08301 -15.08365,15.69519 -20.39957,25.32169 -0.76858,1.39175 -2.45567,5.45544 -3.32304,7.1423 z"
     id="path19"
     style="fill:#000000"
      /><path
     fill="#FFC277"
     opacity="1"
     stroke="none"
     d="m 432.02959,105.51307 c -8.82282,-6.465742 -17.99406,-13.529918 -26.81776,-20.300044 8.80371,-7.729935 19.92516,-16.420263 29.7159,-24.064558 2.10163,0.710617 3.68952,1.292793 4.94074,2.295219 4.71445,3.777047 9.31934,7.690857 13.96524,11.55346 -6.71783,9.60231 -14.76836,20.759387 -21.80412,30.515923 z"
     id="path20"
     style="fill:#000000"
      /><path
     fill="#FF917C"
     opacity="1"
     stroke="none"
     d="m 198.91292,173.59903 c -3.25562,-1.53893 -6.69551,-3.1521 -9.55031,-5.48213 -5.57805,-4.55265 -10.82919,-9.50582 -16.2839,-14.62004 9.11668,-5.76058 18.21208,-11.35462 27.52696,-16.55552 4.20626,-2.34852 9.64027,-0.0878 12.12307,4.35459 2.44558,4.37581 1.4319,9.11606 -3.03013,11.68817 -6.45987,3.72374 -8.4863,9.81291 -9.71677,16.5002 -0.23128,1.25691 -0.65425,2.47854 -1.06892,4.11473 z"
     id="path21"
     style="fill:#000000" /><path
     fill="#FFAD79"
     opacity="1"
     stroke="none"
     d="m 413.88638,184.95526 c 9.14533,-9.79767 19.9512,-17.08534 32.77545,-21.08912 1.85202,-0.57822 4.81357,-0.30002 6.11533,0.8639 1.1539,1.03174 1.58991,4.29144 0.82642,5.80019 -3.63449,7.18184 -7.60251,14.2157 -11.83945,21.06234 -1.87286,3.02649 -4.66425,5.48459 -7.64459,8.16222 -7.14835,-4.95885 -13.69077,-9.87918 -20.23316,-14.79953 z"
     id="path22"
     style="fill:#000000" /><path
     fill="#FFA67A"
     opacity="1"
     stroke="none"
     d="m 287.11658,84.041191 c -7.14823,6.932427 -15.62911,15.197511 -23.25881,21.965719 -1.44931,-1.04102 -2.85224,-2.59445 -3.83069,-3.45922 -5.28024,-4.666845 -10.34323,-8.883927 -15.62668,-13.547143 7.1165,-5.906364 15.78777,-12.923269 23.39184,-18.67542 6.32663,5.285728 11.27105,11.659927 19.32434,13.716064 z"
     id="path23"
     style="fill:#000000"
      /><path
     fill="#FFA67A"
     opacity="1"
     stroke="none"
     d="m 414.87117,183.8672 c 6.89026,4.89786 13.43268,10.0403 20.27191,15.12787 -3.84521,4.42647 -9.12007,9.79566 -13.52159,13.76737 -3.9295,3.54585 -8.74969,2.86523 -13.35648,1.28929 -4.89529,-1.67464 -6.85058,-5.42316 -7.32351,-10.41954 -0.47538,-5.02278 0.99908,-8.94635 4.97058,-12.09339 2.5513,-2.02166 6.1934,-5.45906 8.95909,-7.6716 z"
     id="path24"
     style="fill:#000000"
      /><path
     fill="#FFC976"
     opacity="1"
     stroke="none"
     d="m 453.09111,75.566348 c -4.79174,-3.543366 -9.84085,-4.79186 -14.5553,-8.568907 -1.25122,-1.002426 -3.94966,-3.805699 -5.73918,-4.644169 7.01962,-6.21695 16.77817,-13.777947 24.24274,-19.821969 3.21515,-2.603279 9.0426,-2.120868 11.72146,0.784752 3.16425,3.432053 2.81485,6.800751 0.0192,10.509884 -5.05951,6.712612 -10.67637,14.563201 -15.68889,21.740409 z"
     id="path25"
     style="fill:#000000"
      /><path
     fill="#FFB878"
     opacity="1"
     stroke="none"
     d="m 379.70392,78.794266 c -6.8237,6.672546 -15.25333,5.822258 -18.01163,-1.719101 -0.66428,-1.8162 -0.73706,-4.33049 -0.0194,-6.090447 3.96207,-9.715816 11.70499,-15.287899 21.56266,-17.785034 2.1358,-0.541042 5.91238,0.42038 7.00906,2.013981 1.36435,1.982487 1.87521,5.993202 0.74133,7.977596 -3.10806,5.439339 -7.27026,10.276329 -11.28207,15.603005 z"
     id="path26"
     style="fill:#000000" /><path
     fill="#FFAD79"
     opacity="1"
     stroke="none"
     d="m 286.09062,85.025221 c -8.35998,-1.929619 -14.85918,-7.859599 -20.86745,-13.289286 7.16669,-4.593079 17.17591,-10.897014 24.83512,-14.505562 2.90768,-1.369926 7.71966,-1.323181 10.48825,0.206005 5.1123,2.823697 4.71103,8.523896 -0.18613,13.670235 -4.11169,4.320892 -9.74571,9.571806 -14.26979,13.918608 z"
     id="path27"
     style="fill:#000000"
      /><path
     fill="#FFA27A"
     opacity="1"
     stroke="none"
     d="m 245.64424,88.022034 c 5.59438,4.531181 10.87947,9.192482 16.15971,13.859326 0.97846,0.86477 1.93717,1.75187 3.07355,2.92749 -3.87341,3.79228 -7.61374,7.7436 -12.03728,10.65786 -5.00483,3.29722 -13.61965,1.55867 -16.46305,-2.68445 -3.47478,-5.18528 -3.70299,-13.524417 1.54107,-17.317317 2.78,-2.010712 4.96273,-4.847183 7.726,-7.442909 z"
     id="path28"
     style="fill:#000000" /></g></svg>
