
<svg
   version="1.1"
   id="Layer_1"
   x="0px"
   y="0px"
   width="100%"
   viewBox="0 0 512 512"
   enable-background="new 0 0 512 512"
   
   
   
   
   
   xmlns="http://www.w3.org/2000/svg"
   ><defs
   id="defs30" />



























<g
   id="g30"><path
     fill="#FF5682"
     opacity="1"
     stroke="none"
     d="m 230.97453,458.84351 c -12.54535,3.6745 -25.0105,7.66427 -37.67129,10.88504 -5.96718,1.518 -12.29399,1.9241 -18.48583,2.19516 -13.23243,0.57931 -26.49197,1.21099 -39.7241,0.96038 C 117.54339,472.5517 100.62304,468.43167 86.436928,457.88355 67.855247,444.06702 51.67638,427.88251 46.50563,403.96094 c -1.30487,-6.03675 -2.094867,-12.25019 -2.419624,-18.41935 -0.626308,-11.89761 -1.668667,-23.88622 -0.833931,-35.71682 0.876225,-12.41876 4.064331,-27.52353 6.474846,-40.18701 12.044331,9.03479 23.280632,21.32843 35.039246,30.52899 5.04087,3.94424 12.085269,0.73879 17.275743,4.79278 -0.87593,8.14859 -4.110712,22.51111 -3.852892,30.21299 0.645127,19.27142 13.725252,44.53552 41.908932,48.86917 15.17465,2.33328 29.76802,0.99881 43.98768,-4.71985 0.36499,0.72995 0.56592,1.22974 0.93205,1.52408 14.27599,11.47705 28.58028,22.919 42.83245,34.4255 1.21246,0.97889 2.09083,2.37159 3.1244,3.57209 z"
     id="path2"
     style="fill:#000000"
      /><path
     fill="#FF877D"
     opacity="1"
     stroke="none"
     d="m 352.71008,293.33427 c -6.05099,4.48748 -14.65039,10.92202 -20.85562,15.18505 -4.88074,3.35309 -13.20557,7.77394 -18.81806,10.74202 -5.66363,-4.05957 -9.14979,-6.99968 -14.36879,-10.80626 -4.22122,-3.07883 -7.54637,-6.53001 -11.83253,-9.80531 1.31201,-5.15353 3.18738,-11.91125 4.15799,-16.76214 0.26618,-1.33032 -0.45108,-3.74261 -1.42343,-4.22015 -1.33148,-0.65396 -3.651,-0.4743 -4.99133,0.30447 -3.12933,1.81824 -7.92605,5.53985 -11.20214,7.52886 -16.9686,-13.61142 -32.91099,-25.51896 -49.55548,-38.93692 -19.8704,-16.01852 -42.03158,-32.83933 -61.86114,-48.90817 -7.96319,-6.45295 -14.15801,-13.83586 -22.00483,-20.43245 10.12234,-7.55962 23.13211,-16.674 33.66756,-23.92763 5.79958,5.09333 11.49494,8.71384 17.07299,13.26649 2.8548,2.33003 5.18414,3.27687 8.3596,5.21404 -0.27714,4.23167 -1.36787,10.75117 -0.8999,14.89877 0.55221,4.8942 1.60801,9.95091 3.61148,14.41371 3.52861,7.86003 12.76585,9.28293 19.17978,3.45343 2.2048,-2.0039 5.33185,-5.54765 8.09788,-7.72705 2.10817,0.72212 2.59331,2.6494 3.86255,3.65572 8.571,6.79561 19.29703,11.00924 27.81764,17.86832 20.00949,16.10763 39.14877,28.86101 59.12624,45.00827 10.55533,8.53158 22.35347,21.3944 32.85954,29.98693 z"
     id="path3"
     style="fill:#000000"
      /><path
     fill="#FF917C"
     opacity="1.000000"
     stroke="none"
     d=" M350.362610,294.969116   C339.538696,286.518616 329.073212,277.875885 318.517883,269.344299   C298.540405,253.197037 278.512695,237.112015 258.503204,221.004395   C249.982590,214.145309 241.477661,207.266357 232.906662,200.470749   C231.637421,199.464432 230.041733,198.869812 228.240875,198.021652   C232.673203,186.731232 237.461716,175.503891 242.867538,164.280640   C247.353851,167.659637 251.118790,171.163284 255.108978,174.388260   C278.799927,193.536011 302.508759,212.662109 326.296509,231.689316   C331.293793,235.686508 336.645599,239.240448 341.834045,242.998642   C345.674194,249.515488 349.576752,250.781174 356.947968,247.487045   C360.172974,246.045853 363.102875,243.958618 366.252045,242.329651   C370.166473,240.304825 374.211487,239.926331 377.593842,243.202789   C380.978821,246.481842 380.774567,250.539917 378.792572,254.497528   C372.020752,268.019623 364.132294,280.819305 353.953705,292.090759   C353.009918,293.135895 351.778381,293.921143 350.362610,294.969116  z"
     id="path4"
     style="fill:#000000" /><path
     fill="#FF7E7E"
     opacity="1"
     stroke="none"
     d="m 141.63971,176.02676 c 8.16081,6.46044 15.9104,13.17702 23.8736,19.62998 19.82955,16.06883 39.76963,32.0012 59.64004,48.01973 16.64449,13.41795 33.25321,26.88026 50.00748,40.77202 -8.95142,9.52887 -19.58733,20.38552 -28.73595,29.11812 -4.92728,-6.43893 -10.17471,-11.93533 -17.81766,-14.39899 1.6088,-2.33093 4.58449,-5.80001 5.81459,-7.95052 3.07697,-5.37936 2.25139,-12.05191 -1.79466,-16.16046 -3.98881,-4.05041 -9.33569,-4.7677 -15.14837,-1.92551 -2.527,1.2356 -4.96848,2.64609 -7.51208,3.63169 -2.8383,-3.12619 -5.39019,-6.18189 -8.42411,-8.64353 -21.62253,-17.54419 -43.38338,-34.91792 -65.00931,-52.45797 -6.67169,-5.4112 -13.06093,-11.17061 -19.5795,-16.77059 8.12398,-7.57594 16.24796,-15.15188 24.68593,-22.86397 z"
     id="path5"
     style="fill:#000000"
      /><path
     fill="#FF747F"
     opacity="1"
     stroke="none"
     d="m 229.78616,297.92194 c 7.79667,2.15457 13.26621,7.42886 18.09426,14.22854 -4.06272,10.03638 -0.64383,18.36609 8.26686,19.17697 3.51633,0.31998 7.28387,-2.12109 11.27362,-3.24084 8.78821,6.69498 17.23981,13.32583 25.6914,19.95669 -1.01699,4.04581 -3.37698,8.29978 -2.78839,12.09668 1.50623,9.71598 5.53147,11.89099 15.04517,7.95349 3.11298,-1.28839 6.04886,-3.08807 8.89505,-4.91918 4.95261,-3.18622 9.345,-3.0116 13.78253,0.84079 3.33328,2.89373 4.19156,7.32678 1.41965,11.92895 -6.06796,10.07468 -13.39583,21.25826 -20.17036,31.05946 -2.72632,-2.10198 -7.12149,-1.70083 -9.43658,-3.56808 -23.71201,-19.12534 -45.41563,-38.92902 -69.20106,-57.96284 -5.39619,-4.31821 -10.21363,-9.36 -15.81365,-13.87589 1.90059,-12.23652 5.79403,-25.24722 14.9415,-33.67474 z"
     id="path6"
     style="fill:#000000"
      /><path
     fill="#FFA27A"
     opacity="1"
     stroke="none"
     d="m 275.77809,135.39936 c 7.36945,-2.96872 15.88042,-6.30775 23.20839,-9.37556 5.15125,-2.15654 12.20297,-5.65911 17.80099,-7.78987 1.74698,1.49044 3.52174,2.99387 4.92573,4.13301 14.67123,11.90342 28.09492,24.59055 42.74531,36.51946 6.40418,5.21455 12.61841,9.10758 18.91892,14.44947 -4.50278,6.61632 -10.34777,15.00301 -14.83657,21.62881 -1.98117,2.9244 -5.46932,7.43599 -7.95656,10.2793 -5.03381,-3.77164 -9.3012,-6.57101 -13.81701,-10.22634 -23.73343,-19.21095 -47.25143,-40.41269 -70.9892,-59.61828 z"
     id="path7"
     style="fill:#000000"
      /><path
     fill="#FF767F"
     opacity="1"
     stroke="none"
     d="m 117.08788,198.35766 c 6.82869,5.46672 14.32848,10.5598 21.00017,15.971 21.62593,17.54005 42.49834,34.91379 64.12087,52.45798 3.03392,2.46164 6.25214,5.96155 8.86535,9.35422 -10.85268,6.82889 -25.46634,11.90736 -38.08325,10.45045 -0.87601,-1.83078 -2.31829,-3.46075 -3.55667,-4.48617 -13.25999,-10.98004 -29.01158,-18.79431 -42.42802,-29.58258 -11.73629,-9.43724 -18.9632,-21.34716 -30.785986,-30.67688 6.482296,-7.26666 14.075136,-16.08809 20.867536,-23.48802 z"
     id="path8"
     style="fill:#000000"
      /><path
     fill="#FFAD79"
     opacity="1.000000"
     stroke="none"
     d=" M382.363922,174.970749   C375.744263,169.770859 369.530029,164.323059 363.125854,159.108505   C348.475464,147.179596 333.719116,135.380905 319.047882,123.477486   C317.643890,122.338348 316.535461,120.834915 315.120178,119.205734   C323.877777,112.515511 332.847046,106.177765 341.712646,99.698166   C345.582794,96.869583 349.439880,97.290771 353.047272,99.667404   C356.918243,102.217697 357.759155,106.217941 356.726288,110.576004   C356.134064,113.074944 355.030975,115.473564 354.644653,117.992012   C354.443695,119.302254 354.910614,121.176949 355.805481,122.041016   C356.471344,122.683952 358.676147,122.627190 359.563660,121.995010   C363.912048,118.897652 368.048767,115.503120 372.928436,112.149048   C379.935730,116.759422 386.270233,121.440598 392.615356,126.107391   C398.015167,130.078918 403.427216,134.033859 408.833862,137.996124   C400.116913,150.273666 391.399994,162.551208 382.363922,174.970749  z"
     id="path9"
     style="fill:#000000" /><path
     fill="#FF6D80"
     opacity="1.000000"
     stroke="none"
     d=" M215.103485,330.004181   C220.666794,334.113586 226.372665,338.044830 231.768860,342.363037   C255.554291,361.396851 279.256897,380.534210 302.968903,399.659546   C305.283997,401.526794 307.458069,403.568848 309.871277,405.823822   C302.924042,412.688080 295.803131,419.258270 288.216614,425.655273   C286.700409,424.240265 285.815338,422.794769 284.574829,421.786682   C262.857666,404.139130 241.129501,386.504639 219.296417,369.001129   C217.073273,367.218842 214.163071,366.293518 211.567673,364.509521   C212.743591,352.700409 213.923538,341.352295 215.103485,330.004181  z"
     id="path10"
     style="fill:#000000" /><path
     fill="#FF977B"
     opacity="1"
     stroke="none"
     d="m 340.79613,243.26804 c -5.26108,-3.36126 -13.05609,-5.36044 -18.05337,-9.35763 -23.78775,-19.0272 -47.27448,-38.59752 -70.96543,-57.74527 -3.99018,-3.22498 -5.53403,-6.95074 -9.69983,-10.49203 2.6516,-7.62655 8.73447,-15.02145 15.55751,-19.36244 1.28949,1.82027 4.78034,4.15053 6.06476,5.21428 8.79328,7.28252 17.95142,13.05997 26.84156,20.22548 20.87069,16.82192 39.96455,33.19955 60.83527,50.02144 -2.6882,6.36676 -7.81964,14.7325 -10.58047,21.49617 z"
     id="path11"
     style="fill:#000000"
      /><path
     fill="#FF707F"
     opacity="1"
     stroke="none"
     d="m 96.573746,221.09067 c 12.135714,9.19629 24.026924,18.4409 35.763214,27.87814 13.41644,10.78827 26.72482,21.71207 39.98482,32.69211 1.23837,1.02542 1.79222,2.8775 2.20938,4.77798 -11.82125,0.14383 -24.72269,3.18766 -34.91084,9.16672 -10.1069,-8.11068 -20.67201,-14.44092 -30.38729,-22.40683 -10.727814,-8.79618 -19.521995,-19.53672 -30.222167,-28.3666 5.435867,-7.55525 11.814065,-16.05285 17.562883,-23.74152 z"
     id="path12"
     style="fill:#000000"
      /><path
     fill="#FF9B7B"
     opacity="1"
     stroke="none"
     d="m 350.36255,222.94281 c -21.18933,-16.66017 -42.06006,-33.48203 -62.93076,-50.30394 -8.89013,-7.16551 -17.82617,-14.27562 -26.61944,-21.55814 -1.28443,-1.06375 -3.66473,-2.06135 -4.60644,-3.93826 6.03375,-4.00104 13.86764,-8.51913 20.30367,-12.16807 24.11682,19.18634 47.85694,38.38908 71.59036,57.60003 4.51581,3.65534 9.00531,7.34314 13.72397,11.2735 -3.56961,6.48274 -7.35617,12.70796 -11.46136,19.09488 z"
     id="path13"
     style="fill:#000000"
      /><path
     fill="#FF6880"
     opacity="1"
     stroke="none"
     d="m 79.636032,244.04968 c 11.017334,8.67006 21.696178,17.52594 32.423988,26.32212 9.71528,7.96591 19.48396,15.86669 29.26237,24.1672 -1.79929,1.66132 -3.87235,2.71405 -5.42281,4.2832 -6.66751,6.74772 -13.80971,14.9036 -20.54706,21.43552 -2.48611,-2.69064 -3.96465,-6.58771 -6.53003,-8.66077 -15.231136,-12.30832 -32.139029,-23.22878 -47.440668,-35.44988 5.455501,-10.22702 12.481543,-21.71052 18.25421,-32.09739 z"
     id="path14"
     style="fill:#000000"
      /><path
     id="path15"
     style="fill:#000000"
     
     
     
     d="m 62.46875,274.49219 a 0.59020562,0.59020562 0 0 0 -0.392578,0.35937 c -4.705614,12.43258 -9.088105,24.69803 -13.142578,37.03516 a 0.59020562,0.59020562 0 0 0 0.195312,0.64648 c 11.956492,9.42514 23.507834,18.89163 35.273438,28.09766 5.074876,3.97085 10.559284,7.3688 15.820316,11 a 0.59020562,0.59020562 0 0 0 0.86523,-0.22461 c 5.1288,-10.39873 10.26053,-20.80412 15.32813,-31.8418 a 0.59020562,0.59020562 0 0 0 -0.0742,-0.61328 c -2.38494,-3.00882 -4.51544,-5.6848 -7.14844,-7.8125 C 93.959585,298.82823 78.620534,286.64908 62.990234,274.59375 a 0.59020562,0.59020562 0 0 0 -0.521484,-0.10156 z" /><path
     fill="#FF6680"
     opacity="1"
     stroke="none"
     d="m 212.19992,361.82942 c 2.59137,1.32299 8.64268,2.56243 10.86582,4.34472 21.83309,17.50351 40.42015,34.19566 62.13731,51.84322 1.24051,1.00808 3.69613,4.65235 4.89447,6.20808 -7.27671,5.2781 -16.89998,11.81292 -24.90694,16.57192 -13.01962,-10.13434 -28.23739,-16.35289 -40.73867,-26.20055 -7.26439,-5.72238 -11.87913,-14.98893 -19.2031,-20.95417 2.13295,-9.80185 4.85614,-22.3781 6.95111,-31.81322 z"
     id="path16"
     style="fill:#000000"
      /><path
     fill="#FF5F81"
     opacity="1"
     stroke="none"
     d="m 205.83908,390.24001 c 7.36192,5.59854 14.17543,14.86509 21.43982,20.58747 12.50128,9.84766 27.71905,18.26499 40.37594,28.45237 -8.11358,4.87384 -19.2478,11.10803 -27.62235,15.64749 -2.68798,1.45703 -7.43847,2.58606 -10.58277,3.89065 -1.39342,-1.17498 -4.15645,-0.0548 -5.36892,-1.03368 -14.25216,-11.5065 -26.67179,-25.14723 -40.94778,-36.62428 -0.36613,-0.29434 1.3176,-1.10824 1.18274,-2.08453 10.52857,-5.79861 17.18716,-18.48402 21.52332,-28.83549 z"
     id="path17"
     style="fill:#000000"
      /><path
     fill="#FFB878"
     opacity="1"
     stroke="none"
     d="m 407.42387,139.67797 c -5.55142,-3.64512 -11.40769,-8.04428 -16.8075,-12.01581 -6.34512,-4.66679 -12.23541,-9.34797 -18.93078,-14.08603 10.77005,-9.31222 23.45107,-20.11607 35.21071,-29.344318 9.13821,6.640792 17.64313,13.260749 26.14804,19.880698 -6.99576,9.81403 -13.98617,19.6319 -20.99374,29.43746 -0.93094,1.30264 -3.50408,4.54179 -4.62673,6.128 z"
     id="path18"
     style="fill:#000000"
      /><path
     fill="#FF7E7E"
     opacity="1"
     stroke="none"
     d="m 292.10094,350.31427 c -8.77289,-6.45862 -17.66871,-13.97792 -26.3227,-20.97563 8.11169,-9.39773 16.45394,-21.12624 21.44667,-32.32781 4.34055,2.91526 8.77625,5.70011 12.99747,8.77893 5.219,3.80658 10.25992,7.85724 15.60117,12.06052 -8.50922,7.08301 -15.08365,15.69519 -20.39957,25.32169 -0.76858,1.39175 -2.45567,5.45544 -3.32304,7.1423 z"
     id="path19"
     style="fill:#000000"
      /><path
     fill="#FFC277"
     opacity="1"
     stroke="none"
     d="m 432.02959,105.51307 c -8.82282,-6.465742 -17.99406,-13.529918 -26.81776,-20.300044 8.80371,-7.729935 19.92516,-16.420263 29.7159,-24.064558 2.10163,0.710617 3.68952,1.292793 4.94074,2.295219 4.71445,3.777047 9.31934,7.690857 13.96524,11.55346 -6.71783,9.60231 -14.76836,20.759387 -21.80412,30.515923 z"
     id="path20"
     style="fill:#000000"
      /><path
     fill="#FF917C"
     opacity="1.000000"
     stroke="none"
     d=" M198.912918,173.599030   C195.657303,172.060104 192.217407,170.446930 189.362610,168.116898   C183.784561,163.564255 178.533417,158.611084 173.078705,153.496857   C182.195389,147.736282 191.290787,142.142242 200.605667,136.941345   C204.811935,134.592819 210.245941,136.853500 212.728745,141.295929   C215.174316,145.671738 214.160645,150.411987 209.698608,152.984100   C203.238739,156.707840 201.212311,162.797012 199.981842,169.484299   C199.750565,170.741211 199.327591,171.962845 198.912918,173.599030  z"
     id="path21"
     style="fill:#000000" /><path
     fill="#FFAD79"
     opacity="1.000000"
     stroke="none"
     d=" M413.886383,184.955261   C423.031708,175.157593 433.837585,167.869919 446.661835,163.866135   C448.513855,163.287918 451.475403,163.566116 452.777161,164.730042   C453.931061,165.761780 454.367065,169.021484 453.603577,170.530228   C449.969086,177.712067 446.001068,184.745926 441.764130,191.592575   C439.891266,194.619064 437.099884,197.077164 434.119537,199.754791   C426.971191,194.795944 420.428772,189.875610 413.886383,184.955261  z"
     id="path22"
     style="fill:#000000" /><path
     fill="#FFA67A"
     opacity="1"
     stroke="none"
     d="m 287.11658,84.041191 c -7.14823,6.932427 -15.62911,15.197511 -23.25881,21.965719 -1.44931,-1.04102 -2.85224,-2.59445 -3.83069,-3.45922 -5.28024,-4.666845 -10.34323,-8.883927 -15.62668,-13.547143 7.1165,-5.906364 15.78777,-12.923269 23.39184,-18.67542 6.32663,5.285728 11.27105,11.659927 19.32434,13.716064 z"
     id="path23"
     style="fill:#000000"
      /><path
     fill="#FFA67A"
     opacity="1"
     stroke="none"
     d="m 414.87117,183.8672 c 6.89026,4.89786 13.43268,10.0403 20.27191,15.12787 -3.84521,4.42647 -9.12007,9.79566 -13.52159,13.76737 -3.9295,3.54585 -8.74969,2.86523 -13.35648,1.28929 -4.89529,-1.67464 -6.85058,-5.42316 -7.32351,-10.41954 -0.47538,-5.02278 0.99908,-8.94635 4.97058,-12.09339 2.5513,-2.02166 6.1934,-5.45906 8.95909,-7.6716 z"
     id="path24"
     style="fill:#000000"
      /><path
     fill="#FFC976"
     opacity="1"
     stroke="none"
     d="m 453.09111,75.566348 c -4.79174,-3.543366 -9.84085,-4.79186 -14.5553,-8.568907 -1.25122,-1.002426 -3.94966,-3.805699 -5.73918,-4.644169 7.01962,-6.21695 16.77817,-13.777947 24.24274,-19.821969 3.21515,-2.603279 9.0426,-2.120868 11.72146,0.784752 3.16425,3.432053 2.81485,6.800751 0.0192,10.509884 -5.05951,6.712612 -10.67637,14.563201 -15.68889,21.740409 z"
     id="path25"
     style="fill:#000000"
      /><path
     fill="#FFB878"
     opacity="1.000000"
     stroke="none"
     d=" M379.703918,78.794266   C372.880219,85.466812 364.450592,84.616524 361.692291,77.075165   C361.028015,75.258965 360.955231,72.744675 361.672943,70.984718   C365.635010,61.268902 373.377930,55.696819 383.235596,53.199684   C385.371399,52.658642 389.147980,53.620064 390.244659,55.213665   C391.609009,57.196152 392.119873,61.206867 390.985992,63.191261   C387.877930,68.630600 383.715729,73.467590 379.703918,78.794266  z"
     id="path26"
     style="fill:#000000" /><path
     fill="#FFAD79"
     opacity="1"
     stroke="none"
     d="m 286.09062,85.025221 c -8.35998,-1.929619 -14.85918,-7.859599 -20.86745,-13.289286 7.16669,-4.593079 17.17591,-10.897014 24.83512,-14.505562 2.90768,-1.369926 7.71966,-1.323181 10.48825,0.206005 5.1123,2.823697 4.71103,8.523896 -0.18613,13.670235 -4.11169,4.320892 -9.74571,9.571806 -14.26979,13.918608 z"
     id="path27"
     style="fill:#000000"
      /><path
     fill="#FFA27A"
     opacity="1.000000"
     stroke="none"
     d=" M245.644241,88.022034   C251.238617,92.553215 256.523712,97.214516 261.803955,101.881363   C262.782410,102.746132 263.741119,103.633232 264.877502,104.808853   C261.004089,108.601128 257.263763,112.552452 252.840225,115.466705   C247.835388,118.763931 239.220566,117.025383 236.377167,112.782265   C232.902390,107.596977 232.674179,99.257843 237.918243,95.464943   C240.698242,93.454231 242.880966,90.617760 245.644241,88.022034  z"
     id="path28"
     style="fill:#000000" /></g>


</svg>
