
<svg
   version="1.1"
   id="Layer_1"
   x="0px"
   y="0px"
   width="100%"
   viewBox="0 0 512 512"
   enable-background="new 0 0 512 512"
   
   
   
   
   
   xmlns="http://www.w3.org/2000/svg"
   ><defs
   id="defs32" />

<path
   fill="#040404"
   opacity="1.000000"
   stroke="none"
   d=" M433.842407,464.225830   C416.846130,429.143433 425.037506,391.845062 453.764679,367.458862   C435.780090,355.528473 436.657074,331.540710 456.639679,322.277496   C456.639679,282.313812 456.639679,242.430954 456.639679,202.548096   C456.412292,202.503876 456.184906,202.459656 455.957520,202.415436   C455.307709,204.265930 454.579681,206.093262 454.022858,207.971344   C452.419617,213.378830 451.112396,218.884827 449.281006,224.211899   C444.133545,239.184464 438.739716,254.072342 433.597351,269.046600   C433.227600,270.123322 433.675720,272.037231 434.469482,272.869446   C440.984009,279.699554 442.459778,287.999268 439.927612,296.462708   C437.626190,304.154907 431.838165,309.547821 423.932587,312.565460   C424.244415,316.100983 424.998627,319.717316 424.791595,323.277740   C424.275818,332.149170 418.857300,338.021423 412.064819,343.034851   C410.653351,344.076599 409.237885,346.111359 409.138123,347.767609   C408.549774,357.533203 408.172150,367.320129 408.059906,377.103760   C407.880615,392.732880 401.715393,406.291443 392.640900,418.302155   C385.506836,427.744568 375.917053,434.852905 365.535736,440.878296   C354.413239,447.333893 343.727539,454.541290 332.833862,461.393066   C331.750214,462.074615 330.545990,462.564484 329.062805,463.312073   C329.062805,442.059937 328.759705,421.108948 329.153870,400.171112   C329.500427,381.762939 336.240784,365.629791 348.013031,351.424957   C355.459961,342.439148 364.663818,335.993835 374.929749,330.827240   C376.913239,329.829041 378.509064,329.237061 377.715973,326.119232   C375.194244,316.205475 379.403290,306.475922 388.390289,301.034576   C392.260986,298.690979 394.384552,296.737640 393.359497,291.219666   C391.092102,279.014130 401.573517,266.784576 413.855347,265.213074   C415.171387,265.044647 416.495941,264.943237 418.084717,264.783844   C435.413422,221.391724 447.828857,176.690536 452.847717,129.598969   C451.114288,131.252777 449.346100,132.871811 447.652374,134.565369   C327.561646,254.644440 207.381821,374.634827 87.558189,494.979858   C77.105064,505.478516 66.290657,506.572784 53.272938,503.084412   C27.383623,496.146851 11.432684,473.684967 9.101895,448.676422   C8.472422,441.922424 10.316840,436.382599 15.182137,431.520111   C145.439590,301.338593 275.648560,171.108521 405.864960,40.885899   C420.397003,26.353148 437.585968,15.916290 457.273376,10.528749   C479.061554,4.566336 501.398438,17.399479 504.159851,40.628040   C505.443146,51.422932 502.487366,61.105228 498.445526,70.662262   C496.061401,76.299622 493.557343,82.002815 490.214294,87.089554   C485.700836,93.957176 480.223572,100.184425 475.396942,106.857933   C474.147461,108.585564 473.111572,110.951630 473.108032,113.026367   C472.990631,181.689758 473.029663,250.353409 472.942352,319.016876   C472.938873,321.757935 473.917572,322.905914 476.213623,324.231171   C488.404602,331.267792 490.889648,341.506226 487.689453,353.049713   C486.431915,357.585785 482.176270,361.515472 478.669250,365.121552   C476.449890,367.403534 476.800323,368.380096 478.830780,370.157501   C489.077271,379.127167 496.435730,390.133362 500.842285,402.968536   C504.407990,413.354462 505.961029,424.042542 504.099304,435.067261   C503.174164,440.545685 503.663727,446.490540 501.697723,451.513855   C498.519073,459.635529 494.275848,467.437134 489.697418,474.891876   C482.738647,486.222321 475.087860,497.126831 467.779205,508.243958   C466.112549,510.779144 464.557861,511.547119 462.617584,508.551880   C453.108734,493.872711 443.582397,479.204803 433.842407,464.225830  M92.850769,377.350647   C73.696602,396.494568 54.542431,415.638519 34.756939,435.413452   C57.226196,443.033386 71.652649,457.639160 78.748283,479.711395   C80.346817,478.260040 81.235352,477.518860 82.050278,476.704102   C172.519089,386.246490 262.966644,295.767578 353.511017,205.385666   C356.735565,202.166931 356.345123,200.345856 353.327667,197.394455   C340.824493,185.165222 328.548798,172.703552 316.169220,160.347626   C315.164490,159.344803 314.005737,158.496277 312.748077,157.431763   C239.389114,230.797806 166.369843,303.824097 92.850769,377.350647  M379.364655,90.841064   C362.408386,107.797874 345.512268,124.815689 328.438446,141.653305   C325.486816,144.564102 325.374756,146.382843 328.424347,149.288528   C336.379272,156.868073 344.038666,164.758301 351.798676,172.541794   C357.412415,178.172501 362.998627,183.830643 368.756775,189.637589   C370.161316,188.392166 371.178314,187.579956 372.093414,186.665726   C389.882904,168.893356 407.585999,151.033356 425.509003,133.396805   C428.750000,130.207611 428.360504,128.357849 425.335815,125.400391   C412.834442,113.177010 400.560852,100.720779 388.183929,88.369804   C387.175598,87.363564 386.019135,86.505783 384.372620,85.102791   C382.688110,87.057526 381.277374,88.694603 379.364655,90.841064  M458.975403,27.505882   C444.598572,31.288017 432.476196,39.123859 420.966888,48.736340   C421.918884,50.008007 422.751495,51.444656 423.883911,52.583080   C436.314301,65.079590 448.831024,77.490395 461.225220,90.022476   C463.993835,92.821854 465.832153,92.668282 468.427216,89.614830   C478.018097,78.329910 484.076508,65.321045 488.097870,51.217083   C491.038330,40.904022 485.472839,30.548431 475.535919,26.845238   C470.018799,24.789179 464.898010,26.049053 458.975403,27.505882  M405.395538,64.824005   C403.747253,66.467850 402.233398,68.281082 400.421600,69.718857   C397.066711,72.381111 397.483978,74.492760 400.464905,77.319115   C407.461792,83.953171 414.169617,90.892441 420.981384,97.721245   C427.529694,104.286041 434.061646,110.867218 440.745789,117.586990   C445.003998,113.209984 448.877899,109.228004 452.150665,105.863914   C437.722626,91.373161 423.212921,76.800369 408.495789,62.019260   C407.841370,62.593723 406.869446,63.446911 405.395538,64.824005  M40.956314,478.575867   C47.642834,483.829895 54.818428,487.868256 63.736397,488.245148   C61.680828,469.261261 38.691738,450.032135 25.767956,451.540283   C27.340273,462.287842 32.359650,471.003143 40.956314,478.575867  M456.990875,390.326385   C456.714966,389.547729 456.439087,388.769073 456.059143,387.696655   C448.844452,397.352936 442.988129,406.987976 442.018250,419.463135   C443.191132,418.931122 443.827545,418.786469 444.279022,418.416321   C452.871887,411.370911 459.943726,403.600555 456.990875,390.326385  M482.770386,400.886261   C479.908600,396.672363 477.046814,392.458496 474.185028,388.244598   C473.641937,388.454529 473.098846,388.664459 472.555786,388.874390   C473.063751,394.857849 472.034119,401.607117 474.522858,406.604004   C476.893890,411.364410 481.587189,415.921204 487.064880,418.392792   C487.581116,418.116730 488.097351,417.840637 488.613586,417.564545   C486.760681,412.236938 484.907745,406.909302 482.770386,400.886261  M348.671143,432.397583   C351.193970,430.823364 353.851685,429.421265 356.179382,427.597931   C357.248047,426.760834 358.426575,424.977783 358.246185,423.829285   C357.623627,419.865784 356.424652,415.992828 355.408508,411.939240   C351.530884,413.280029 348.288025,414.401337 345.432465,415.388733   C345.432465,421.885468 345.432465,427.883240 345.432465,434.290924   C346.637512,433.608795 347.330841,433.216309 348.671143,432.397583  M447.317596,438.868469   C442.090973,444.214172 442.177032,446.993317 447.575500,454.268890   C457.985077,449.090546 458.117188,440.143555 456.252228,429.052490   C452.955109,432.699158 450.392731,435.533142 447.317596,438.868469  M395.661072,327.069031   C399.316498,330.254639 403.406067,329.536163 406.309662,326.729675   C408.003571,325.092377 408.840820,321.216827 408.170807,318.894287   C407.587250,316.871552 404.485199,314.592285 402.246307,314.292694   C399.755463,313.959442 395.700745,314.976349 394.632202,316.774994   C393.031403,319.469604 392.532227,323.428467 395.661072,327.069031  M463.033264,338.046570   C456.997284,340.273712 455.246429,347.116821 459.654877,351.081085   C462.918091,354.015503 466.822601,353.656860 469.522278,351.319611   C471.462738,349.639618 472.825500,345.860413 472.474854,343.286072   C471.880493,338.922119 467.958191,337.779541 463.033264,338.046570  M421.779785,295.491486   C422.689941,293.994659 424.395782,292.463165 424.332367,291.008759   C424.224976,288.544159 423.686981,285.457977 422.100708,283.833466   C418.939484,280.596008 414.209412,281.172791 411.363922,283.724121   C409.612762,285.294189 409.188263,289.892944 410.114960,292.417084   C410.874908,294.487091 414.390106,295.786896 416.926514,296.848541   C417.989960,297.293640 419.679474,296.242889 421.779785,295.491486  M486.663910,443.057159   C482.469971,438.725250 478.276031,434.393341 473.011139,428.955231   C473.011139,434.453949 473.009644,438.345093 473.012329,442.236206   C473.012878,443.062439 472.680603,444.192200 473.093658,444.665833   C475.863190,447.841492 478.792786,450.877563 481.670441,453.958923   C482.982758,451.597626 484.326752,449.253113 485.592224,446.867004   C486.116852,445.877777 486.473602,444.799561 486.663910,443.057159  M467.118042,479.516663   C468.796021,477.043304 470.664948,474.670990 472.054596,472.045074   C472.583862,471.044983 472.502472,469.103699 471.850128,468.214020   C470.013763,465.709473 467.736267,463.528412 465.751617,461.350342   C455.626801,468.721832 455.625366,468.722778 461.778870,477.967560   C462.605377,479.209259 463.454803,480.435638 464.419525,481.854279   C465.240814,481.236450 465.990845,480.672211 467.118042,479.516663  M379.328979,394.445038   C378.783722,393.068054 378.238464,391.691071 377.688568,390.302307   C370.186371,394.663300 368.163605,405.313843 373.125061,413.964172   C380.961121,410.493286 382.956177,404.612061 379.328979,394.445038  M380.846863,347.534698   C379.501648,347.662323 377.788208,347.303467 376.871552,347.997284   C371.338165,352.185333 365.958862,356.580231 360.616394,361.012451   C360.049316,361.482910 360.055420,362.644226 359.444824,364.620087   C362.963654,363.743958 365.614990,363.185150 368.201172,362.409058   C370.431091,361.739929 373.431000,361.454895 374.603333,359.887665   C377.216400,356.394257 378.900085,352.205627 380.846863,347.534698  M357.202240,381.980743   C348.271942,382.594025 348.271942,382.594025 345.191071,396.404785   C353.042389,397.607910 358.890839,392.287262 361.836609,380.773834   C360.349243,381.229065 359.191711,381.583313 357.202240,381.980743  M388.719299,368.721405   C386.581879,372.953400 389.852570,375.515320 392.368103,378.504547   C392.368103,373.129974 392.368103,367.755402 392.368103,361.137360   C390.854980,364.152802 389.885468,366.084869 388.719299,368.721405  z"
   id="path2" />


















<path
   fill="#020202"
   opacity="1.000000"
   stroke="none"
   d=" M244.081970,236.958618   C256.681488,228.686264 273.856934,233.811829 279.325195,248.406509   C283.320862,259.070801 282.433289,269.271393 268.028503,278.301636   C259.008240,283.956390 242.644485,280.783813 237.343063,271.354065   C230.110489,258.489380 231.648895,246.338196 244.081970,236.958618  M249.451630,254.863312   C249.631363,255.646133 250.144073,256.533051 249.937134,257.195007   C248.523071,261.717834 251.531906,263.563995 254.793167,264.813080   C258.080933,266.072296 262.801483,263.502747 264.075195,260.265564   C265.832855,255.798340 264.817169,252.836807 260.856384,250.880157   C256.633575,248.794067 251.851227,250.178131 249.451630,254.863312  z"
   id="path21" />
<path
   fill="#020202"
   opacity="1.000000"
   stroke="none"
   d=" M172.695160,373.833862   C165.229828,379.783142 147.700348,377.954651 141.581375,367.726166   C132.995071,353.373230 136.537903,339.079620 150.848068,331.426270   C163.462494,324.679779 181.088760,332.783051 184.056198,347.528534   C185.333435,353.875336 185.647369,360.067535 181.471603,365.397858   C179.065201,368.469574 175.871689,370.924652 172.695160,373.833862  M155.655563,359.074493   C159.314560,362.256317 163.408279,361.547821 166.314957,358.735168   C168.010666,357.094360 168.848572,353.216583 168.178970,350.890198   C167.596725,348.867218 164.491104,346.585968 162.251434,346.287354   C159.754883,345.954407 155.684341,346.970215 154.624512,348.769073   C153.035690,351.465851 152.533051,355.429443 155.655563,359.074493  z"
   id="path22" />
<path
   fill="#020202"
   opacity="1.000000"
   stroke="none"
   d=" M102.779526,394.002930   C117.328537,398.433563 123.027954,410.486115 120.129898,424.457275   C118.773842,430.994659 106.698250,441.435791 99.633575,441.102722   C91.851677,440.735840 84.638626,440.070801 79.332832,433.772278   C73.127113,426.405334 70.437599,414.742523 76.212540,405.230957   C82.032692,395.644928 92.297638,391.198608 102.779526,394.002930  M89.263245,419.412140   C90.629631,420.994598 91.838081,423.698761 93.396370,423.918182   C96.337524,424.332245 100.049713,424.162415 102.349518,422.613739   C104.037399,421.477142 105.211884,417.223785 104.390099,415.319794   C103.397118,413.019104 100.246582,410.685272 97.691246,410.218231   C91.844711,409.149536 90.096184,411.432861 89.263245,419.412140  z"
   id="path23" />
<path
   fill="#020202"
   opacity="1.000000"
   stroke="none"
   d=" M219.961716,283.822937   C232.057648,291.553284 234.293320,300.241180 232.069351,312.510773   C230.879349,319.075928 218.605179,329.607513 211.550049,329.096130   C204.760956,328.604065 198.287048,328.427795 192.988602,323.510834   C185.270264,316.348236 182.238586,302.331299 188.492981,292.697083   C195.484818,281.926910 206.556213,278.546936 219.961716,283.822937  M203.485245,299.118622   C201.152222,302.518036 200.607285,306.348877 202.650909,309.784668   C204.947266,313.645294 208.761429,313.631500 212.654877,311.997040   C216.343063,310.448700 217.261185,307.137848 216.798050,303.889801   C216.216629,299.812103 213.109451,297.857239 208.973541,298.045715   C207.374146,298.118561 205.796265,298.664337 203.485245,299.118622  z"
   id="path24" />
<path
   fill="#020202"
   opacity="1.000000"
   stroke="none"
   d=" M307.530884,185.180756   C314.981842,186.465012 320.718567,189.821396 324.812866,195.701904   C331.500885,205.307648 329.761505,216.831284 321.357361,226.327805   C312.888245,235.897797 295.836761,234.458084 288.777893,227.287598   C281.259186,219.649994 278.785431,209.314667 282.597961,200.283310   C286.251801,191.627853 294.213989,184.169540 307.530884,185.180756  M305.411346,202.003830   C302.504120,202.316086 298.851135,201.614594 298.192535,205.739410   C297.709076,208.767456 296.450531,212.100128 299.349182,214.825043   C302.288269,217.587997 305.897278,217.922745 308.776184,215.750061   C310.814301,214.211899 312.562927,211.122208 312.766022,208.590744   C313.080780,204.666412 309.987549,202.658051 305.411346,202.003830  z"
   id="path25" />
<path
   fill="#020202"
   opacity="1.000000"
   stroke="none"
   d=" M362.320129,118.244186   C374.809479,108.209892 392.873688,113.522232 399.075562,127.820351   C402.094788,134.781021 402.271698,145.675919 393.714081,154.216232   C385.566071,162.347794 372.321594,162.174042 365.428680,158.608185   C352.692169,152.019287 348.086243,131.434647 359.912445,120.577866   C360.646790,119.903709 361.338928,119.183601 362.320129,118.244186  M379.527954,144.127457   C384.269592,143.387192 385.021698,139.614288 384.804718,136.029434   C384.583832,132.379730 381.709015,130.219467 378.123718,130.109528   C375.158722,130.018585 371.450775,129.336365 370.292297,133.594101   C368.567078,139.934814 370.119324,146.167816 379.527954,144.127457  z"
   id="path26" />






</svg>
